<svg width="25" height="24" viewBox="0 0 25 24" fill="none" xmlns="http://www.w3.org/2000/svg">
<g clip-path="url(#clip0_118_53)">
<path fill-rule="evenodd" clip-rule="evenodd" d="M18 3H7.5C6.67157 3 6 3.67157 6 4.5V21C6.00014 21.2726 6.14815 21.5236 6.38659 21.6557C6.62503 21.7878 6.91636 21.7801 7.1475 21.6356L12.75 18.1341L18.3534 21.6356C18.5845 21.7796 18.8755 21.787 19.1136 21.655C19.3518 21.523 19.4997 21.2723 19.5 21V4.5C19.5 3.67157 18.8284 3 18 3V3ZM13.1466 16.6144C12.9034 16.4624 12.5948 16.4624 12.3516 16.6144L7.5 19.6472V16.9153L12.75 13.6341L18 16.9153V19.6472L13.1466 16.6144Z" fill="#121217"/>
</g>
<defs>
<clipPath id="clip0_118_53">
<rect width="24" height="24" fill="white" transform="translate(0.75)"/>
</clipPath>
</defs>
</svg>
