<svg width="25" height="24" viewBox="0 0 25 24" fill="none" xmlns="http://www.w3.org/2000/svg">
<g clip-path="url(#clip0_118_61)">
<path fill-rule="evenodd" clip-rule="evenodd" d="M12.25 7.5C9.76472 7.5 7.75 9.51472 7.75 12C7.75 14.4853 9.76472 16.5 12.25 16.5C14.7353 16.5 16.75 14.4853 16.75 12C16.7474 9.51579 14.7342 7.50258 12.25 7.5V7.5ZM12.25 15C10.5931 15 9.25 13.6569 9.25 12C9.25 10.3431 10.5931 9 12.25 9C13.9069 9 15.25 10.3431 15.25 12C15.25 13.6569 13.9069 15 12.25 15V15ZM20.5 12.2025C20.5037 12.0675 20.5037 11.9325 20.5 11.7975L21.8988 10.05C22.0475 9.86393 22.099 9.61827 22.0375 9.38813C21.8082 8.52619 21.4652 7.69861 21.0175 6.92719C20.8986 6.72249 20.6901 6.58592 20.455 6.55875L18.2313 6.31125C18.1388 6.21375 18.045 6.12 17.95 6.03L17.6875 3.80063C17.6601 3.56531 17.5232 3.35677 17.3181 3.23813C16.5464 2.79126 15.7189 2.44859 14.8572 2.21906C14.6269 2.15784 14.3812 2.20969 14.1953 2.35875L12.4525 3.75C12.3175 3.75 12.1825 3.75 12.0475 3.75L10.3 2.35406C10.1139 2.20533 9.86827 2.15383 9.63813 2.21531C8.77633 2.44503 7.9488 2.78802 7.17719 3.23531C6.97249 3.35417 6.83592 3.56268 6.80875 3.79781L6.56125 6.02531C6.46375 6.11844 6.37 6.21219 6.28 6.30656L4.05063 6.5625C3.81531 6.58988 3.60677 6.72682 3.48813 6.93188C3.04126 7.70359 2.69859 8.5311 2.46906 9.39281C2.40784 9.6231 2.45969 9.86878 2.60875 10.0547L4 11.7975C4 11.9325 4 12.0675 4 12.2025L2.60406 13.95C2.45533 14.1361 2.40383 14.3817 2.46531 14.6119C2.69462 15.4738 3.03763 16.3014 3.48531 17.0728C3.60417 17.2775 3.81268 17.4141 4.04781 17.4412L6.27156 17.6887C6.36469 17.7862 6.45844 17.88 6.55281 17.97L6.8125 20.1994C6.83988 20.4347 6.97682 20.6432 7.18188 20.7619C7.95359 21.2087 8.7811 21.5514 9.64281 21.7809C9.8731 21.8422 10.1188 21.7903 10.3047 21.6413L12.0475 20.25C12.1825 20.2537 12.3175 20.2537 12.4525 20.25L14.2 21.6488C14.3861 21.7975 14.6317 21.849 14.8619 21.7875C15.7238 21.5582 16.5514 21.2152 17.3228 20.7675C17.5275 20.6486 17.6641 20.4401 17.6912 20.205L17.9387 17.9813C18.0362 17.8888 18.13 17.795 18.22 17.7L20.4494 17.4375C20.6847 17.4101 20.8932 17.2732 21.0119 17.0681C21.4587 16.2964 21.8014 15.4689 22.0309 14.6072C22.0922 14.3769 22.0403 14.1312 21.8913 13.9453L20.5 12.2025ZM18.9906 11.5931C19.0066 11.8641 19.0066 12.1359 18.9906 12.4069C18.9795 12.5924 19.0376 12.7755 19.1537 12.9206L20.4841 14.5828C20.3314 15.0679 20.136 15.5385 19.9 15.9891L17.7812 16.2291C17.5967 16.2495 17.4264 16.3377 17.3031 16.4766C17.1227 16.6795 16.9305 16.8717 16.7275 17.0522C16.5887 17.1754 16.5005 17.3458 16.48 17.5303L16.2447 19.6472C15.7942 19.8833 15.3236 20.0787 14.8384 20.2313L13.1753 18.9009C13.0422 18.7946 12.8769 18.7367 12.7066 18.7369H12.6616C12.3905 18.7528 12.1188 18.7528 11.8478 18.7369C11.6623 18.7257 11.4792 18.7838 11.3341 18.9L9.66719 20.2313C9.18206 20.0786 8.71146 19.8831 8.26094 19.6472L8.02094 17.5312C8.00046 17.3467 7.91227 17.1764 7.77344 17.0531C7.57048 16.8727 7.37827 16.6805 7.19781 16.4775C7.07456 16.3387 6.9042 16.2505 6.71969 16.23L4.60281 15.9937C4.36674 15.5433 4.17128 15.0727 4.01875 14.5875L5.34906 12.9244C5.46522 12.7793 5.52336 12.5962 5.51219 12.4106C5.49625 12.1396 5.49625 11.8679 5.51219 11.5969C5.52336 11.4113 5.46522 11.2282 5.34906 11.0831L4.01875 9.41719C4.1714 8.93206 4.36685 8.46146 4.60281 8.01094L6.71875 7.77094C6.90326 7.75046 7.07362 7.66227 7.19688 7.52344C7.37733 7.32048 7.56954 7.12827 7.7725 6.94781C7.91188 6.82448 8.00043 6.65373 8.02094 6.46875L8.25625 4.35281C8.70672 4.11674 9.17733 3.92128 9.6625 3.76875L11.3256 5.09906C11.4707 5.21522 11.6538 5.27336 11.8394 5.26219C12.1104 5.24625 12.3821 5.24625 12.6531 5.26219C12.8387 5.27336 13.0218 5.21522 13.1669 5.09906L14.8328 3.76875C15.3179 3.9214 15.7885 4.11685 16.2391 4.35281L16.4791 6.46875C16.4995 6.65326 16.5877 6.82362 16.7266 6.94688C16.9295 7.12733 17.1217 7.31954 17.3022 7.5225C17.4254 7.66133 17.5958 7.74952 17.7803 7.77L19.8972 8.00531C20.1333 8.45578 20.3287 8.9264 20.4813 9.41156L19.1509 11.0747C19.0337 11.221 18.9755 11.406 18.9878 11.5931H18.9906Z" fill="#636E87"/>
</g>
<defs>
<clipPath id="clip0_118_61">
<rect width="24" height="24" fill="white" transform="translate(0.25)"/>
</clipPath>
</defs>
</svg>
